<?xml version="1.0" encoding="UTF-8" standalone="no"?>
<!DOCTYPE svg PUBLIC "-//W3C//DTD SVG 1.1//EN"
 "http://www.w3.org/Graphics/SVG/1.1/DTD/svg11.dtd">
<!-- Generated by graphviz version 2.40.1 (20161225.0304)
 -->
<!-- Title: dependencies Pages: 1 -->
<svg width="718pt" height="211pt"
 viewBox="0.00 0.00 718.00 211.00" xmlns="http://www.w3.org/2000/svg" xmlns:xlink="http://www.w3.org/1999/xlink">
<g id="graph0" class="graph" transform="scale(1 1) rotate(0) translate(4 207)">
<title>dependencies</title>
<polygon fill="#ffffff" stroke="transparent" points="-4,4 -4,-207 714,-207 714,4 -4,4"/>
<text text-anchor="start" x="334.0091" y="-42.4" font-family="sans-serif" font-weight="bold" font-size="14.00" fill="#000000">Legend</text>
<polygon fill="#ffffb3" stroke="transparent" points="121,-10 121,-30 141,-30 141,-10 121,-10"/>
<text text-anchor="start" x="144.629" y="-15.4" font-family="sans-serif" font-size="14.00" fill="#000000"> &#160;Declarations</text>
<polygon fill="#8dd3c7" stroke="transparent" points="234,-10 234,-30 254,-30 254,-10 234,-10"/>
<text text-anchor="start" x="257.7251" y="-15.4" font-family="sans-serif" font-size="14.00" fill="#000000"> &#160;Module</text>
<polygon fill="#80b1d3" stroke="transparent" points="320,-10 320,-30 340,-30 340,-10 320,-10"/>
<text text-anchor="start" x="343.7812" y="-15.4" font-family="sans-serif" font-size="14.00" fill="#000000"> &#160;Bootstrap</text>
<polygon fill="#fdb462" stroke="transparent" points="417,-10 417,-30 437,-30 437,-10 417,-10"/>
<text text-anchor="start" x="440.6732" y="-15.4" font-family="sans-serif" font-size="14.00" fill="#000000"> &#160;Providers</text>
<polygon fill="#fb8072" stroke="transparent" points="513,-10 513,-30 533,-30 533,-10 513,-10"/>
<text text-anchor="start" x="536.7258" y="-15.4" font-family="sans-serif" font-size="14.00" fill="#000000"> &#160;Exports</text>
<g id="clust1" class="cluster">
<title>cluster_BeyondAccountServiceModule</title>
<polygon fill="none" stroke="#000000" stroke-dasharray="1,5" points="8,-70 8,-195 246,-195 246,-70 8,-70"/>
</g>
<g id="clust6" class="cluster">
<title>cluster_BeyondAccountServiceModule_providers</title>
<polygon fill="none" stroke="#000000" points="16,-78 16,-130 238,-130 238,-78 16,-78"/>
</g>
<g id="clust7" class="cluster">
<title>cluster_BeyondSessionServiceModule</title>
<polygon fill="none" stroke="#000000" stroke-dasharray="1,5" points="254,-70 254,-195 486,-195 486,-70 254,-70"/>
</g>
<g id="clust12" class="cluster">
<title>cluster_BeyondSessionServiceModule_providers</title>
<polygon fill="none" stroke="#000000" points="262,-78 262,-130 478,-130 478,-78 262,-78"/>
</g>
<g id="clust13" class="cluster">
<title>cluster_BeyondUserServiceModule</title>
<polygon fill="none" stroke="#000000" stroke-dasharray="1,5" points="494,-70 494,-195 702,-195 702,-70 494,-70"/>
</g>
<g id="clust18" class="cluster">
<title>cluster_BeyondUserServiceModule_providers</title>
<polygon fill="none" stroke="#000000" points="502,-78 502,-130 694,-130 694,-78 502,-78"/>
</g>
<!-- BeyondAccountService -->
<g id="node1" class="node">
<title>BeyondAccountService</title>
<ellipse fill="#fdb462" stroke="#000000" cx="127" cy="-104" rx="102.9938" ry="18"/>
<text text-anchor="middle" x="127" y="-99.8" font-family="Times,serif" font-size="14.00" fill="#000000">BeyondAccountService</text>
</g>
<!-- BeyondAccountServiceModule -->
<g id="node2" class="node">
<title>BeyondAccountServiceModule</title>
<polygon fill="#8dd3c7" stroke="#000000" points="223.0056,-187 220.0056,-191 199.0056,-191 196.0056,-187 30.9944,-187 30.9944,-151 223.0056,-151 223.0056,-187"/>
<text text-anchor="middle" x="127" y="-164.8" font-family="Times,serif" font-size="14.00" fill="#000000">BeyondAccountServiceModule</text>
</g>
<!-- BeyondAccountService&#45;&gt;BeyondAccountServiceModule -->
<g id="edge1" class="edge">
<title>BeyondAccountService&#45;&gt;BeyondAccountServiceModule</title>
<path fill="none" stroke="#000000" d="M127,-122.1061C127,-122.1061 127,-140.991 127,-140.991"/>
<polygon fill="#000000" stroke="#000000" points="123.5001,-140.9909 127,-150.991 130.5001,-140.991 123.5001,-140.9909"/>
</g>
<!-- BeyondSessionService -->
<g id="node3" class="node">
<title>BeyondSessionService</title>
<ellipse fill="#fdb462" stroke="#000000" cx="370" cy="-104" rx="99.579" ry="18"/>
<text text-anchor="middle" x="370" y="-99.8" font-family="Times,serif" font-size="14.00" fill="#000000">BeyondSessionService</text>
</g>
<!-- BeyondSessionServiceModule -->
<g id="node4" class="node">
<title>BeyondSessionServiceModule</title>
<polygon fill="#8dd3c7" stroke="#000000" points="463.8557,-187 460.8557,-191 439.8557,-191 436.8557,-187 276.1443,-187 276.1443,-151 463.8557,-151 463.8557,-187"/>
<text text-anchor="middle" x="370" y="-164.8" font-family="Times,serif" font-size="14.00" fill="#000000">BeyondSessionServiceModule</text>
</g>
<!-- BeyondSessionService&#45;&gt;BeyondSessionServiceModule -->
<g id="edge2" class="edge">
<title>BeyondSessionService&#45;&gt;BeyondSessionServiceModule</title>
<path fill="none" stroke="#000000" d="M370,-122.1061C370,-122.1061 370,-140.991 370,-140.991"/>
<polygon fill="#000000" stroke="#000000" points="366.5001,-140.9909 370,-150.991 373.5001,-140.991 366.5001,-140.9909"/>
</g>
<!-- BeyondUserService -->
<g id="node5" class="node">
<title>BeyondUserService</title>
<ellipse fill="#fdb462" stroke="#000000" cx="598" cy="-104" rx="88.023" ry="18"/>
<text text-anchor="middle" x="598" y="-99.8" font-family="Times,serif" font-size="14.00" fill="#000000">BeyondUserService</text>
</g>
<!-- BeyondUserServiceModule -->
<g id="node6" class="node">
<title>BeyondUserServiceModule</title>
<polygon fill="#8dd3c7" stroke="#000000" points="683.5057,-187 680.5057,-191 659.5057,-191 656.5057,-187 512.4943,-187 512.4943,-151 683.5057,-151 683.5057,-187"/>
<text text-anchor="middle" x="598" y="-164.8" font-family="Times,serif" font-size="14.00" fill="#000000">BeyondUserServiceModule</text>
</g>
<!-- BeyondUserService&#45;&gt;BeyondUserServiceModule -->
<g id="edge3" class="edge">
<title>BeyondUserService&#45;&gt;BeyondUserServiceModule</title>
<path fill="none" stroke="#000000" d="M598,-122.1061C598,-122.1061 598,-140.991 598,-140.991"/>
<polygon fill="#000000" stroke="#000000" points="594.5001,-140.9909 598,-150.991 601.5001,-140.991 594.5001,-140.9909"/>
</g>
</g>
</svg>
